<svg xmlns="http://www.w3.org/2000/svg" version="1.1" xmlns:xlink="http://www.w3.org/1999/xlink" xmlns:svgjs="http://svgjs.dev/svgjs" width="1000" height="750" viewBox="0 0 1000 750"><rect width="1000" height="750" fill="#ffffff"></rect><g transform="matrix(0.5934959349593496,0,0,0.5934959349593496,203.5761080628455,83.23643724696356)"><svg viewBox="0 0 251 247" data-background-color="#528265" preserveAspectRatio="xMidYMid meet" height="984" width="1000" xmlns="http://www.w3.org/2000/svg" xmlns:xlink="http://www.w3.org/1999/xlink"><g id="tight-bounds" transform="matrix(1,0,0,1,-0.13705731814013689,-0.09999999999999432)"><svg viewBox="0 0 251.27411463628027 247.2" height="247.2" width="251.27411463628027"><g><svg viewBox="0 0 395.52 389.107107755711" height="247.2" width="251.27411463628027"><g transform="matrix(1,0,0,1,0,276.868574150823)"><svg viewBox="0 0 395.52 112.23853360488798" height="112.23853360488798" width="395.52"><g id="textblocktransform"><svg viewBox="0 0 395.52 112.23853360488798" height="112.23853360488798" width="395.52" id="textblock"><g><svg viewBox="0 0 395.52 112.23853360488798" height="112.23853360488798" width="395.52"><g transform="matrix(1,0,0,1,0,0)"><svg width="395.52" viewBox="1.5099999904632568 -38.22999954223633 143.8400115966797 40.81999969482422" height="112.23853360488798" data-palette-color="#ffffff"><path d="M21.39-35.25L21.39-35.25Q21.39-33.4 20.12-31.88 18.85-30.37 17.02-29.17 15.19-27.98 13.18-27.1 11.18-26.22 9.72-25.63L9.72-25.63Q9.72-24.61 9.67-23.54 9.62-22.46 9.52-21.39L9.52-21.39Q11.08-22.17 13.04-22.85 14.99-23.54 16.75-23.54L16.75-23.54Q18.16-23.54 19.07-22.95 19.97-22.36 19.97-20.9L19.97-20.9Q19.97-19.29 18.82-18.02 17.68-16.75 16.06-15.77 14.45-14.79 12.7-14.11 10.94-13.43 9.72-13.04L9.72-13.04Q9.72-11.43 9.67-9.84 9.62-8.25 9.52-6.69L9.52-6.69Q9.47-5.91 9.35-4.74 9.23-3.56 8.86-2.47 8.5-1.37 7.81-0.56 7.13 0.24 6.05 0.24L6.05 0.24Q5.03 0.24 4.3-0.76 3.56-1.76 3.05-3.32 2.54-4.88 2.22-6.81 1.9-8.74 1.73-10.6 1.56-12.45 1.54-14.01 1.51-15.58 1.51-16.41L1.51-16.41Q1.51-17.04 1.54-18.29 1.56-19.53 1.59-21.04 1.61-22.56 1.68-24.22 1.76-25.88 1.86-27.37 1.95-28.86 2.12-30 2.29-31.15 2.54-31.69L2.54-31.69Q3.08-32.76 5.1-33.81 7.13-34.86 9.62-35.67 12.11-36.47 14.48-36.99 16.85-37.5 18.12-37.5L18.12-37.5Q18.7-37.5 19.26-37.43 19.82-37.35 20.31-37.11 20.8-36.87 21.09-36.43 21.39-35.99 21.39-35.25ZM32.81 1.61L32.81 1.61Q29.83 1.61 27.63 0.12 25.44-1.37 24-3.88 22.56-6.4 21.85-9.72 21.14-13.04 21.14-16.7L21.14-16.7Q21.14-20.12 21.9-23.63 22.65-27.15 24.22-29.98 25.78-32.81 28.17-34.62 30.56-36.43 33.88-36.43L33.88-36.43Q37.11-36.43 39.28-34.69 41.45-32.96 42.75-30.2 44.04-27.44 44.6-24.02 45.16-20.61 45.16-17.19L45.16-17.19Q45.16-13.38 44.41-9.99 43.65-6.59 42.11-4 40.57-1.42 38.25 0.1 35.94 1.61 32.81 1.61ZM33.4-25.63L33.4-25.63Q32.47-25.63 31.81-24.9 31.15-24.17 30.71-22.97 30.27-21.78 30.08-20.29 29.88-18.8 29.88-17.29L29.88-17.29Q29.88-15.58 30.1-13.87 30.32-12.16 30.76-10.79 31.2-9.42 31.86-8.59 32.52-7.76 33.44-7.76L33.44-7.76Q34.52-7.76 35.15-8.84 35.79-9.91 36.15-11.43 36.52-12.94 36.64-14.55 36.77-16.16 36.77-17.24L36.77-17.24Q36.77-18.55 36.59-20.02 36.42-21.48 36.03-22.73 35.64-23.97 35.01-24.8 34.37-25.63 33.4-25.63ZM59.08 1.61L59.08 1.61Q56.1 1.61 53.9 0.12 51.7-1.37 50.26-3.88 48.82-6.4 48.12-9.72 47.41-13.04 47.41-16.7L47.41-16.7Q47.41-20.12 48.16-23.63 48.92-27.15 50.48-29.98 52.05-32.81 54.44-34.62 56.83-36.43 60.15-36.43L60.15-36.43Q63.37-36.43 65.55-34.69 67.72-32.96 69.01-30.2 70.31-27.44 70.87-24.02 71.43-20.61 71.43-17.19L71.43-17.19Q71.43-13.38 70.67-9.99 69.92-6.59 68.38-4 66.84-1.42 64.52 0.1 62.2 1.61 59.08 1.61ZM59.66-25.63L59.66-25.63Q58.74-25.63 58.08-24.9 57.42-24.17 56.98-22.97 56.54-21.78 56.34-20.29 56.15-18.8 56.15-17.29L56.15-17.29Q56.15-15.58 56.37-13.87 56.59-12.16 57.03-10.79 57.47-9.42 58.12-8.59 58.78-7.76 59.71-7.76L59.71-7.76Q60.79-7.76 61.42-8.84 62.06-9.91 62.42-11.43 62.79-12.94 62.91-14.55 63.03-16.16 63.03-17.24L63.03-17.24Q63.03-18.55 62.86-20.02 62.69-21.48 62.3-22.73 61.91-23.97 61.27-24.8 60.64-25.63 59.66-25.63ZM96.82-26.17L96.82-26.17Q96.82-23.54 95.67-21 94.52-18.46 92.62-16.43 90.72-14.4 88.27-13.11 85.83-11.82 83.24-11.67L83.24-11.67Q83.2-10.79 83.17-9.45 83.15-8.11 83-6.64 82.85-5.18 82.59-3.71 82.32-2.25 81.8-1.07 81.29 0.1 80.49 0.83 79.68 1.56 78.51 1.56L78.51 1.56Q77.14 1.56 76.34 0.66 75.53-0.24 75.11-1.51 74.7-2.78 74.55-4.17 74.41-5.57 74.36-6.54L74.36-6.54Q74.26-7.96 74.24-9.33 74.21-10.69 74.21-12.11L74.21-12.11Q74.21-12.74 74.21-14.48 74.21-16.21 74.24-18.43 74.26-20.65 74.31-23.07 74.36-25.49 74.46-27.56 74.55-29.64 74.68-31.1 74.8-32.57 74.99-32.81L74.99-32.81Q75.04-32.86 75.29-33.03 75.53-33.2 75.82-33.37 76.12-33.54 76.36-33.69 76.6-33.84 76.7-33.89L76.7-33.89Q78.95-35.16 81.63-36.08 84.32-37.01 86.96-37.01L86.96-37.01Q89.2-37.01 91.03-36.11 92.86-35.21 94.16-33.72 95.45-32.23 96.14-30.25 96.82-28.27 96.82-26.17ZM88.37-25.05L88.37-25.05Q88.37-26.03 87.91-26.76 87.44-27.49 86.37-27.49L86.37-27.49Q85.44-27.49 84.51-27.12 83.59-26.76 82.81-26.37L82.81-26.37Q82.95-24.66 83.07-23.05 83.2-21.44 83.1-19.73L83.1-19.73Q83.88-20.12 84.81-20.63 85.73-21.14 86.52-21.78 87.3-22.41 87.83-23.22 88.37-24.02 88.37-25.05ZM121.67-7.23L121.67-7.23Q121.67-6.25 121.5-4.88 121.33-3.52 120.84-2.27 120.35-1.03 119.52-0.17 118.69 0.68 117.32 0.68L117.32 0.68Q115.52 0.68 114.61-0.63 113.71-1.95 113.32-3.78 112.93-5.62 112.86-7.52 112.78-9.42 112.73-10.55L112.73-10.55Q109.22-9.96 105.8-9.52L105.8-9.52Q105.7-8.4 105.39-6.74 105.07-5.08 104.41-3.54 103.75-2 102.7-0.88 101.65 0.24 100.14 0.24L100.14 0.24Q98.96 0.24 98.31-0.61 97.65-1.46 97.3-2.64 96.96-3.81 96.89-5.05 96.82-6.3 96.82-7.13L96.82-7.13Q96.82-9.91 97.26-12.62 97.7-15.33 98.28-18.02L98.28-18.02Q98.57-19.43 99.06-21.34 99.55-23.24 100.26-25.27 100.97-27.29 101.92-29.27 102.87-31.25 104.09-32.81 105.31-34.38 106.87-35.35 108.44-36.33 110.34-36.33L110.34-36.33Q112.2-36.33 113.56-35.5 114.93-34.67 115.96-33.3 116.98-31.93 117.67-30.2 118.35-28.47 118.81-26.68 119.28-24.9 119.59-23.19 119.91-21.48 120.16-20.17L120.16-20.17Q120.79-16.99 121.23-13.75 121.67-10.5 121.67-7.23ZM112.25-17.68L112.25-19.09Q112.25-19.68 112.17-21.02 112.1-22.36 111.86-23.71 111.61-25.05 111.1-26.1 110.59-27.15 109.71-27.15L109.71-27.15Q109.22-27.15 108.78-26.49 108.34-25.83 108-24.83 107.66-23.83 107.39-22.61 107.12-21.39 106.92-20.26 106.73-19.14 106.63-18.24 106.53-17.33 106.48-16.94L106.48-16.94Q109.41-17.19 112.25-17.68L112.25-17.68ZM145.35-33.59L145.35-33.59Q145.35-31.45 144.79-28.86 144.23-26.27 143.35-23.63 142.47-21 141.44-18.51 140.42-16.02 139.54-14.11L139.54-14.11Q139.05-13.04 138.34-11.4 137.63-9.77 136.76-7.91 135.88-6.05 134.88-4.17 133.87-2.29 132.8-0.81 131.73 0.68 130.6 1.64 129.48 2.59 128.36 2.59L128.36 2.59Q126.79 2.59 126.13 1.44 125.48 0.29 125.48-1.12L125.48-1.12Q125.48-2.49 125.94-4.03 126.4-5.57 127.11-7.08 127.82-8.59 128.67-10.01 129.53-11.43 130.26-12.55L130.26-12.55Q129.28-12.79 128.36-13.43 127.43-14.06 126.99-14.94L126.99-14.94Q126.21-16.65 125.38-18.8 124.55-20.95 123.89-23.17 123.23-25.39 122.79-27.61 122.35-29.83 122.35-31.69L122.35-31.69Q122.35-32.57 122.55-33.62 122.74-34.67 123.21-35.57 123.67-36.47 124.43-37.08 125.18-37.7 126.31-37.7L126.31-37.7Q127.58-37.7 128.55-36.74 129.53-35.79 130.29-34.33 131.04-32.86 131.58-31.05 132.12-29.25 132.51-27.49 132.9-25.73 133.14-24.27 133.39-22.8 133.58-21.97L133.58-21.97Q133.78-22.71 134.24-24.19 134.7-25.68 135.36-27.49 136.02-29.3 136.88-31.2 137.73-33.11 138.68-34.67 139.64-36.23 140.71-37.23 141.78-38.23 142.91-38.23L142.91-38.23Q143.64-38.23 144.13-37.7 144.62-37.16 144.88-36.43 145.15-35.69 145.25-34.91 145.35-34.13 145.35-33.59Z" opacity="1" transform="matrix(1,0,0,1,0,0)" fill="#000000" class="undefined-text-0" data-fill-palette-color="primary" id="text-0"></path></svg></g></svg></g></svg></g></svg></g><g transform="matrix(1,0,0,1,85.82253698389601,0)"><svg viewBox="0 0 223.87492603220795 223.87492603220795" height="223.87492603220795" width="223.87492603220795"><g><svg></svg></g><g id="icon-0"><svg viewBox="0 0 223.87492603220795 223.87492603220795" height="223.87492603220795" width="223.87492603220795"><g><path d="M0 111.937c0-61.821 50.116-111.937 111.937-111.937 61.821 0 111.937 50.116 111.938 111.937 0 61.821-50.116 111.937-111.938 111.938-61.821 0-111.937-50.116-111.937-111.938zM111.937 213.753c56.231 0 101.816-45.584 101.816-101.816 0-56.231-45.584-101.816-101.816-101.815-56.231 0-101.816 45.584-101.815 101.815 0 56.231 45.584 101.816 101.815 101.816z" data-fill-palette-color="accent" fill="#566c0f" stroke="transparent"></path></g><g transform="matrix(1,0,0,1,50.33173776031417,50.33242535705946)"><svg viewBox="0 0 123.21145051157961 123.21007531808903" height="123.21007531808903" width="123.21145051157961"><g><svg xmlns="http://www.w3.org/2000/svg" xmlns:xlink="http://www.w3.org/1999/xlink" version="1.1" x="0" y="0" viewBox="4.885000228881836 4.883938789367676 90.23006439208984 90.22905731201172" enable-background="new 0 0 100 100" xml:space="preserve" height="123.21007531808903" width="123.21145051157961" class="icon-s-0" data-fill-palette-color="accent" id="s-0"><path d="M58.536 31.58c-2.694 2.694-5.209 5.276-7.552 7.733-3.858 0.803-8.51 1.906-12.738 3.276-4.613 1.494-8.778 3.234-11.85 4.629 2.866-3.972 3.837-6.542 3.833-6.536 0.008-0.008-5.891 2.153-13.835 10.098C8.473 58.701 4.885 64.4 4.885 64.4l0.813 0.814 0.813 0.812c0 0 0.689-0.437 1.898-1.317l-0.003 0.003c0 0 6.585-3.43 12.801-2.289 3.315 0.607 5.892 1.599 7.583 2.394-0.989 1.286-1.482 1.97-1.482 1.97l1.123 1.122c-6.169 6.545-9.003 11.036-9.003 11.036l0.814 0.812 0.814 0.814c0 0 4.492-2.833 11.035-9.003l1.122 1.122c0 0 0.683-0.492 1.969-1.481 0.795 1.691 1.786 4.268 2.394 7.583 1.141 6.215-2.289 12.801-2.289 12.801l0.002-0.002c-0.88 1.208-1.317 1.896-1.317 1.896l0.813 0.814 0.813 0.812c0 0 5.699-3.588 13.62-11.508 7.943-7.943 10.105-13.844 10.097-13.836 0.006-0.005-2.563 0.968-6.536 3.835 1.396-3.072 3.135-7.237 4.63-11.851 1.37-4.229 2.474-8.882 3.276-12.741 2.458-2.343 5.039-4.857 7.733-7.552C89.423 20.459 95.138 4.862 95.115 4.884 95.138 4.862 79.318 10.798 58.536 31.58zM80.501 22.835l-3.336-3.337c-0.358-0.358-0.358-0.938 0-1.297 0.357-0.358 0.938-0.358 1.297 0l3.337 3.336c0.358 0.358 0.357 0.939-0.001 1.297C81.44 23.193 80.859 23.194 80.501 22.835z" fill="#7214d0" data-fill-palette-color="accent"></path></svg></g></svg></g></svg></g></svg></g><g></g></svg></g><defs></defs></svg><rect width="251.27411463628027" height="247.2" fill="none" stroke="none" visibility="hidden"></rect></g></svg></g></svg>